<?xml version="1.0" encoding="UTF-8" standalone="no"?>
<!-- Created with Inkscape (http://www.inkscape.org/) -->
<svg
   xmlns:svg="http://www.w3.org/2000/svg"
   xmlns="http://www.w3.org/2000/svg"
   version="1.0"
   width="273.599"
   height="174.03"
   viewBox="0 0 273.599 174.03"
   id="Layer_1"
   xml:space="preserve"><defs
   id="defs24" />

<metadata>
<rdf:RDF
      xmlns="http://web.resource.org/cc/"
      xmlns:dc="http://purl.org/dc/elements/1.1/"
      xmlns:rdf="http://www.w3.org/1999/02/22-rdf-syntax-ns#">
      <Work rdf:about="">
         <dc:title>Banana Peel</dc:title>
         <dc:description>Banana Peel</dc:description>
         <dc:subject>
          <rdf:Bag>
            <rdf:li>fruit</rdf:li>
            <rdf:li>banana</rdf:li>
	      <rdf:li>peel</rdf:li>
          </rdf:Bag>
         </dc:subject>
         <dc:publisher><Agent rdf:about="http://www.openclipart.org/"><dc:title>Open Clip Art Project</dc:title></Agent></dc:publisher>
         <dc:creator><Agent rdf:about=""><dc:title>Gerald G.</dc:title></Agent></dc:creator>
         <dc:rights><Agent rdf:about="http://web.resource.org/cc/PublicDomain"><dc:title>Public Domain</dc:title></Agent></dc:rights>
         <dc:date>2006/10/02</dc:date>
         <dc:format>image/svg+xml</dc:format>
         <dc:type>http://purl.org/dc/dcmitype/StillImage</dc:type>
         <license rdf:resource="http://web.resource.org/cc/PublicDomain" />
      </Work>
      <License rdf:about="http://web.resource.org/cc/PublicDomain">
         <permits rdf:resource="http://web.resource.org/cc/Reproduction" />
         <permits rdf:resource="http://web.resource.org/cc/Distribution" />
         <permits rdf:resource="http://web.resource.org/cc/DerivativeWorks" />
      </License>
   </rdf:RDF>
</metadata>


<g
   id="g5">
	<path
   d="M 91.98,9.933 C 86.58,6.585 80.64,4.137 73.872,2.733 C 67.104,1.185 60.624,1.508 51.66,1.185 C 42.588,0.825 26.928,0.069 20.088,0.861 C 13.212,1.509 13.788,3.345 10.692,5.253 C 7.452,7.088 2.7,8.457 1.008,12.128 C -0.72,15.656 0.324,20.552 0.396,26.816 C 0.324,33.224 -0.144,42.872 1.332,49.64 C 2.844,56.192 3.888,61.484 9.468,65.912 C 14.976,70.196 25.704,72.356 34.164,75.596 C 42.516,78.764 52.2,83.372 59.472,84.956 C 66.636,86.36 71.964,85.892 77.004,84.668 C 81.9,83.48 86.004,81.14 89.172,77.792 L 89.172,77.792 C 87.588,88.664 88.632,98.924 92.304,108.717 C 96.048,118.473 103.968,128.119 111.06,136.256 C 117.972,144.393 125.532,152.565 133.596,156.885 C 141.588,160.989 150.659,158.504 158.579,160.951 C 166.355,163.472 171.756,169.053 180.18,171.283 C 188.46,173.408 196.956,175.099 208.296,173.156 C 219.743,171.031 240.336,163.039 247.716,158.756 C 254.772,154.328 252.252,149.504 250.848,147.199 C 249.336,144.896 249.804,145.545 238.932,144.679 C 227.844,143.636 199.656,146.48 185.472,141.259 C 171.216,135.859 161.82,121.892 154.224,113.107 C 146.592,104.144 142.776,95 140.148,88.735 C 137.448,82.435 136.873,78.295 138.276,75.883 L 138.276,75.883 C 140.724,77.611 144.216,77.611 148.896,75.595 C 153.468,73.543 159.156,67.963 166.104,64.003 C 172.98,59.827 180.828,53.815 190.188,51.511 C 199.404,49.279 208.62,49.099 221.436,50.575 C 234.252,52.015 257.688,59.827 266.472,59.971 C 275.112,59.899 273.78,53.995 273.024,50.575 C 272.052,46.975 269.244,43.087 261.144,39.307 C 252.828,35.419 237.996,29.731 224.568,28.075 C 211.14,26.419 194.868,26.779 181.728,29.299 C 168.48,31.711 155.088,38.695 146.412,42.763 C 137.772,46.759 132.588,50.251 130.464,53.383 L 130.464,53.383 C 129.276,50.179 128.7,47.191 128.592,44.023 C 128.484,40.855 128.844,37.723 129.816,34.627 L 129.816,34.627 C 127.332,32.143 125.28,30.415 123.264,29.011 C 121.248,27.607 119.52,26.815 117.936,26.491 L 117.936,26.491 C 114.624,28.759 111.528,31.423 108.252,34.627 C 104.904,37.831 101.304,41.575 98.568,45.571 C 95.76,49.495 93.708,53.563 91.98,58.063 L 91.98,58.063 C 79.308,53.997 68.076,49.82 57.6,45.249 C 47.16,40.713 38.016,35.925 29.772,30.885 L 29.772,30.885 C 40.14,27.717 48.564,25.377 55.728,24.009 C 62.82,22.605 68.112,22.029 72,22.425 L 72,22.425 C 73.08,24.153 74.088,25.305 75.42,25.881 C 76.716,26.349 78.264,25.197 79.488,25.881 C 80.568,26.565 79.128,30.093 81.972,29.949 C 84.744,29.661 91.332,25.737 96.048,24.297 C 100.62,22.713 102.888,22.749 109.512,21.201 C 116.1,19.617 127.332,18.141 135.144,15.261 C 142.884,12.237 152.676,6.153 155.484,3.669 C 158.112,1.041 154.656,-0.615 151.092,0.249 C 147.384,1.149 142.991,6.981 133.884,8.997 C 124.668,10.869 112.356,11.805 96.372,11.805 L 96.372,11.805 C 94.932,11.192 93.456,10.581 91.98,9.933 L 91.98,9.933 z "
   style="fill-rule:evenodd;stroke:black;stroke-width:0.036;stroke-miterlimit:10"
   id="path7" />
	<path
   d="M 99.828,12.74 C 103.5,13.208 107.82,13.316 112.644,13.064 C 117.504,12.74 122.868,12.164 128.88,11.192 L 128.88,11.192 C 128.772,12.524 128.304,13.568 127.332,14.612 C 126.324,15.476 126.288,16.268 122.94,17.132 C 119.448,17.996 110.844,19.076 106.704,19.94 C 102.456,20.66 99.432,21.38 97.632,21.812 L 97.632,21.812 C 99.252,20.732 100.188,19.796 100.44,19.004 C 100.584,18.14 99.324,17.78 99.18,16.808 C 99.036,15.692 99.252,14.468 99.828,12.74 L 99.828,12.74 z "
   style="fill:yellow;fill-rule:evenodd;stroke:black;stroke-width:0.036;stroke-miterlimit:10"
   id="path9" />
	<path
   d="M 134.208,10.256 C 133.236,11.336 132.984,12.056 133.596,12.416 C 134.172,12.776 135.468,12.776 137.628,12.416 L 137.628,12.416 C 141.552,10.868 144.396,9.644 146.699,8.348 C 148.859,7.016 150.263,6.008 150.767,4.928 L 150.767,4.928 C 149.327,5.288 148.139,5.396 147.347,5.252 C 146.519,5.036 145.943,4.712 145.763,3.992 L 145.763,3.992 C 143.027,5.864 140.831,7.268 138.887,8.348 C 136.944,9.356 135.432,10.041 134.208,10.256 L 134.208,10.256 z "
   style="fill:yellow;fill-rule:evenodd;stroke:black;stroke-width:0.036;stroke-miterlimit:10"
   id="path11" />
	<path
   d="M 93.564,12.128 C 90.684,9.968 86.508,8.132 80.748,6.476 C 74.916,4.784 69.516,3.056 59.148,2.408 C 48.672,1.796 26.1,1.904 18.504,2.732 C 10.944,3.416 15.912,5.216 13.824,6.476 C 11.52,7.592 6.12,7.665 5.4,9.608 C 4.644,11.444 6.048,14 9.468,17.42 L 9.468,17.42 C 15.588,14.396 22.932,12.056 31.644,10.544 C 40.392,8.996 54.504,8.168 61.344,8.06 C 67.968,7.808 75.06,8.348 71.352,8.996 C 67.356,9.392 48.456,9.572 38.52,11.192 C 28.548,12.812 19.98,15.26 12.276,18.68 L 12.276,18.68 C 14.58,21.056 17.028,23.144 19.764,24.944 C 22.428,26.708 25.344,28.112 28.512,29.3 L 28.512,29.3 C 35.568,26.276 42.66,24.044 49.788,22.748 C 56.844,21.344 63.936,20.876 71.064,21.2 L 71.064,21.2 C 70.128,18.752 70.128,16.916 71.064,15.548 C 72.036,14.108 75.384,14.072 76.68,13.064 C 77.724,11.912 76.248,9.644 77.94,9.32 C 79.524,8.96 84.06,10.652 86.688,11.192 C 89.352,11.696 91.512,11.913 93.564,12.128 L 93.564,12.128 z "
   style="fill:yellow;fill-rule:evenodd;stroke:black;stroke-width:0.036;stroke-miterlimit:10"
   id="path13" />
	<path
   d="M 89.82,12.74 C 85.14,11.444 81.9,10.868 80.1,10.868 C 78.228,10.94 79.956,11.66 78.876,12.74 C 77.58,13.748 74.268,14.9 73.224,16.484 C 72.18,17.996 72.54,19.76 72.936,21.2 C 73.26,22.388 74.088,23.468 75.42,24.008 C 76.752,24.368 79.452,23.684 80.748,24.296 C 81.828,24.944 80.46,28.148 82.62,28.076 C 84.852,27.824 88.272,26.384 93.564,23.36 L 93.564,23.36 C 88.452,24.188 85.716,24.404 84.816,24.008 C 83.952,23.576 87.012,21.74 88.56,20.876 C 90.036,19.976 94.428,19.004 93.564,18.356 C 92.556,17.456 83.556,16.556 82.944,16.196 C 82.44,15.728 88.344,16.376 90.108,16.196 C 91.692,15.872 92.628,15.548 92.628,14.936 C 92.484,14.396 91.692,13.568 89.82,12.74 L 89.82,12.74 z "
   style="fill:yellow;fill-rule:evenodd;stroke:black;stroke-width:0.036;stroke-miterlimit:10"
   id="path15" />
	<path
   d="M 3.816,11.805 C 4.788,15.333 7.452,18.645 11.952,22.425 C 16.524,26.061 23.292,29.589 30.708,33.693 C 38.016,37.833 45.144,42.261 55.404,46.833 C 65.592,51.261 77.4,55.509 91.368,59.973 L 91.368,59.973 L 89.496,69.657 L 89.496,69.657 C 80.64,69.117 71.64,67.101 61.668,64.005 C 51.66,60.692 39.024,54.968 30.42,50.577 C 21.672,46.077 12.348,38.841 10.08,37.761 C 7.812,36.681 12.276,41.037 16.956,44.313 C 21.6,47.589 29.916,53.205 37.584,57.129 C 45.216,60.945 54.792,64.653 61.992,67.137 C 68.976,69.513 74.988,70.7 79.488,71.529 C 83.88,72.321 86.904,72.429 88.56,71.853 L 88.56,71.853 C 88.596,74.697 86.94,77.037 83.88,79.017 C 80.568,80.961 75.78,83.265 69.804,83.409 C 63.756,83.373 54.72,81.177 48.528,79.341 C 42.372,77.397 38.412,74.589 32.904,72.465 C 27.144,70.413 19.764,69.657 15.084,66.849 C 10.332,63.789 7.272,59.865 5.076,54.645 C 2.988,49.245 2.52,41.217 2.268,35.565 C 1.764,29.877 2.664,24.621 2.592,21.201 C 2.448,17.781 1.332,16.341 1.62,14.937 C 1.836,13.316 2.52,12.272 3.816,11.805 L 3.816,11.805 z "
   style="fill:yellow;fill-rule:evenodd;stroke:black;stroke-width:0.036;stroke-miterlimit:10"
   id="path17" />
	<path
   d="M 111.06,34.628 L 110.124,39.956 L 110.124,39.956 C 104.508,43.844 100.44,49.028 97.92,56.192 C 95.364,63.32 94.752,74.84 94.824,82.148 C 94.824,89.312 97.2,100.076 97.632,99.032 C 97.884,97.664 96.228,82.184 96.695,74.948 C 97.019,67.676 97.379,61.7 100.115,55.904 C 102.851,50 107.027,44.96 112.931,40.244 L 112.931,40.244 C 114.263,39.344 115.523,38.876 116.711,38.696 C 117.899,38.516 118.799,38.768 119.807,39.308 L 119.807,39.308 C 119.411,45.788 119.159,53.816 119.195,63.392 C 119.123,73.004 116.603,85.532 119.807,96.548 C 122.975,107.42 128.627,119.156 138.275,128.444 C 147.887,137.624 164.519,147.13 177.047,151.557 C 189.503,155.875 211.318,154.364 212.362,154.364 C 213.047,154.292 190.078,152.6 182.05,150.944 C 174.022,149.18 170.493,146.876 164.518,143.745 C 158.398,140.36 151.45,136.436 145.762,131.54 C 139.93,126.608 134.35,121.497 130.138,114.657 C 125.854,107.745 121.93,99.032 120.454,90.609 C 118.978,82.005 120.67,72.681 121.066,64.005 C 121.426,55.293 121.714,47.157 122.326,39.021 L 122.326,39.021 L 126.718,39.309 L 126.718,39.309 C 126.502,45.033 127.042,51.729 128.878,59.973 C 130.498,68.145 132.982,78.585 137.014,88.089 C 141.082,97.449 146.77,108.032 152.962,116.241 C 158.974,124.376 166.354,131.901 173.302,136.868 C 180.25,141.729 185.11,143.673 194.542,145.329 C 203.901,146.876 220.281,145.94 228.958,146.265 C 237.382,146.517 242.025,146.372 245.518,147.201 C 248.974,147.849 250.162,149.146 249.91,150.945 C 249.587,152.818 249.587,155.265 243.646,158.433 C 237.455,161.566 223.018,167.398 213.946,169.701 C 204.766,171.826 196.738,172.222 189.862,171.574 C 183.022,170.818 178.846,168.299 173.302,165.957 C 167.614,163.547 162.178,159.441 156.418,157.822 C 150.441,156.201 144.646,158.181 138.886,156.273 C 133.09,154.15 129.814,152.673 122.65,145.617 C 115.378,138.418 101.806,124.125 96.37,113.722 C 90.898,103.173 90.862,92.517 90.43,83.409 C 89.998,74.337 91.186,66.561 93.562,59.649 C 95.794,52.557 100.906,45.681 103.894,41.505 C 106.812,37.256 109.152,35.061 111.06,34.628 L 111.06,34.628 z "
   style="fill:yellow;fill-rule:evenodd;stroke:black;stroke-width:0.036;stroke-miterlimit:10"
   id="path19" />
	<path
   d="M 133.272,53.384 L 130.752,55.256 L 130.752,55.256 C 130.5,56.48 130.608,57.74 131.076,59.324 C 131.508,60.872 132.192,62.492 133.272,64.328 L 133.272,64.328 C 132.336,64.004 134.964,62.024 141.696,58.388 C 148.428,54.608 162.972,46.652 172.98,42.44 C 182.88,38.156 192.096,34.952 200.484,33.368 C 208.62,31.748 215.028,32.252 222.085,33.08 C 229.105,33.8 236.196,36.248 242.389,38.084 C 248.509,39.92 262.872,44.492 258.66,44.024 C 254.16,43.232 228.6,34.988 216.432,34.304 C 204.192,33.656 195.984,37.112 186.119,40.244 C 176.075,43.412 166.535,47.912 157.643,52.772 C 148.823,57.416 141.083,62.42 133.883,68.072 L 133.883,68.072 C 133.919,70.484 134.711,72.212 136.691,73.4 C 138.635,74.48 141.551,76.244 145.151,74.948 C 148.715,73.544 152.603,68.468 157.355,65.264 C 161.963,61.844 166.139,58.568 172.367,55.58 C 178.344,52.628 185.147,48.956 193.607,47.768 C 202.139,46.544 213.371,47.12 223.019,48.38 C 232.559,49.532 243.071,52.916 250.523,54.644 C 257.795,56.408 263.591,58.676 267.084,58.388 C 270.468,57.848 271.224,54.176 271.151,51.836 C 271.151,49.46 270.935,47.228 266.471,44.312 C 261.719,41.252 253.078,36.284 243.323,33.692 C 233.46,30.992 219.743,28.436 208.296,28.364 C 196.812,28.292 185.867,30.092 175.176,33.08 C 164.411,35.924 151.56,42.08 144.54,45.572 C 137.52,48.957 133.812,51.513 133.272,53.384 L 133.272,53.384 z "
   style="fill:yellow;fill-rule:evenodd;stroke:black;stroke-width:0.036;stroke-miterlimit:10"
   id="path21" />
</g>
</svg>